{"title":"Carjacked 2011 1080p BRRip Xvid AC3 LKRG","uid":10371055,"size":1511243478,"categoryP":"video","categoryS":"hd___movies","magnet":"?xt=urn:btih:e5d4577a68ece8f57767d12711e2ea18192e2706&amp;dn=Carjacked+2011+1080p+BRRip+Xvid+AC3+LKRG&amp;tr=udp%3A%2F%2Ftracker.openbittorrent.com%3A80&amp;tr=udp%3A%2F%2Fopen.demonii.com%3A1337&amp;tr=udp%3A%2F%2Ftracker.coppersurfer.tk%3A6969&amp;tr=udp%3A%2F%2Fexodus.desync.com%3A6969","seeders":0,"leechers":2,"uploader":".BONE.","files":2,"time":1402934760,"description":"Source ..........: japhson-carjacked-1080p\nRuntime ..........: 1h 29mn\nFile Size ........: 1.41 GB\nResolution .......: 1920 x 816 &lt;a href=&quot;\nhttp://www.imdb.com/title/tt1321861/&quot; rel=&quot;nofollow&quot; target=&quot;_NEW&quot;&gt;\nhttp://www.imdb.com/title/tt1321861/&lt;/a&gt;\nGenre ............: Crime,Thriller\nLanguage .........: English\nSubtitles ........: None\nComplete name : Carjacked 2011 1080p BRRip Xvid AC3 LKRGCarjacked_LKRG.avi\nFormat : AVI\nFormat/Info : Audio Video Interleave\nFile size : 1.41 GiB\nDuration : 1h 29mn\nOverall bit rate : 2 253 Kbps\nWriting application : VirtualDubMod 1.5.10.2 (build 2540/release)\nWriting library : VirtualDubMod build 2540/release\nVideo\nID : 0\nFormat : MPEG-4 Visual\nFormat profile : Advanced Simple@L5\nFormat settings, BVOP : 2\nFormat settings, QPel : No\nFormat settings, GMC : No warppoints\nFormat settings, Matrix : Default (H.263)\nMuxing mode : Packed bitstream\nCodec ID : XVID\nCodec ID/Hint : XviD\nDuration : 1h 29mn\nBit rate : 1 795 Kbps\nWidth : 1 920 pixels\nHeight : 816 pixels\nDisplay aspect ratio : 2.35:1\nFrame rate : 23.976 fps\nColor space : YUV\nChroma subsampling : 4:2:0\nBit depth : 8 bits\nScan type : Progressive\nCompression mode : Lossy\nBits/(Pixel*Frame) : 0.048\nStream size : 1.12 GiB (80%)\nWriting library : XviD 1.2.1 (UTC 2008-12-04)\nAudio\nID : 1\nFormat : AC-3\nFormat/Info : Audio Coding 3\nMode extension : CM (complete main)\nFormat settings, Endianness : Big\nCodec ID : 2000\nDuration : 1h 29mn\nBit rate mode : Constant\nBit rate : 448 Kbps\nChannel(s) : 6 channels\nChannel positions : Front: L C R, Side: L R, LFE\nSampling rate : 48.0 KHz\nBit depth : 16 bits\nCompression mode : Lossy\nStream size : 287 MiB (20%)\nAlignment : Split accross interleaves\nInterleave, duration : 42 ms (1.00 video frame)\nInterleave, preload duration : 500 ms\n","torrent":{"xt":"urn:btih:e5d4577a68ece8f57767d12711e2ea18192e2706","amp;dn":"Carjacked+2011+1080p+BRRip+Xvid+AC3+LKRG","amp;tr":["udp%3A%2F%2Ftracker.openbittorrent.com%3A80","udp%3A%2F%2Fopen.demonii.com%3A1337","udp%3A%2F%2Ftracker.coppersurfer.tk%3A6969","udp%3A%2F%2Fexodus.desync.com%3A6969"],"infoHash":"e5d4577a68ece8f57767d12711e2ea18192e2706","infoHashBuffer":{"type":"Buffer","data":[229,212,87,122,104,236,232,245,119,103,209,39,17,226,234,24,25,46,39,6]},"announce":[],"urlList":[]}}